nColumns=28
nRows=23
DataType=double
version=3
OpenSimVersion=4.1
endheader
time	ground_force_1_vx	ground_force_1_vy	ground_force_1_vz	ground_force_1_px	ground_force_1_py	ground_force_1_pz	ground_force_1_mx	ground_force_1_my	ground_force_1_mz	ground_force_2_vx	ground_force_2_vy	ground_force_2_vz	ground_force_2_px	ground_force_2_py	ground_force_2_pz	ground_force_2_mx	ground_force_2_my	ground_force_2_mz	ground_force_3_vx	ground_force_3_vy	ground_force_3_vz	ground_force_3_px	ground_force_3_py	ground_force_3_pz	ground_force_3_mx	ground_force_3_my	ground_force_3_mz
1.55	0	0	0	0.00141934	0	6.74441e-06	0	0	0	-81.5238	94.6159	20.1383	-0.0810937	0.006	-0.864794	0	-0.325075	0	0	0	0	0.00141934	0	6.74441e-06	0	0	0
1.56	-41.9619	50.1639	-6.477	-0.0972587	0.006	-0.322904	0	0.076251	0	-409.507	537.65	112.672	-0.0967377	0.006	-0.865104	0	0.584354	0	0	0	0	0.00141934	0	6.74441e-06	0	0	0
1.57	-272.495	408.889	-68.8682	-0.150403	0.006	-0.326875	0	0.594699	0	-420.152	705.639	113.512	-0.106312	0.006	-0.861392	0	2.49814	0	0	0	0	0.00141934	0	6.74441e-06	0	0	0
1.58	-254.536	821.501	-127.914	-0.203873	0.006	-0.334172	0	-0.605067	0	-90.6503	917.349	16.5754	-0.174094	0.006	-0.836575	0	-1.26359	0	0	0	0	0.00141934	0	6.74441e-06	0	0	0
1.59	147.38	1360.7	-91.277	-0.258837	0.006	-0.346671	0	-6.11343	0	22.3149	1694.09	82.8614	-0.228142	0.006	-0.819742	0	-4.76198	0	0	0	0	0.00141934	0	6.74441e-06	0	0	0
1.6	176.532	1340.1	-81.6164	-0.260974	0.006	-0.349509	0	-10.2173	0	-3.71475	1705.67	112.541	-0.232686	0.006	-0.817544	0	-5.80732	0	0	0	0	0.00141934	0	6.74441e-06	0	0	0
1.61	-108.55	775.877	-89.805	-0.212647	0.006	-0.346322	0	-6.06066	0	-245.53	946.349	103.586	-0.190112	0.006	-0.826855	0	-5.36358	0	0	0	0	0.00141934	0	6.74441e-06	0	0	0
1.62	-289.706	502.084	-86.4683	-0.150396	0.006	-0.345138	0	-0.352658	0	-386.44	565.275	94.194	-0.125327	0.006	-0.84115	0	-2.76507	0	0	0	0	0.00141934	0	6.74441e-06	0	0	0
1.63	-294.07	411.453	-64.7428	-0.135555	0.006	-0.349786	0	0.076682	0	-365.402	458.311	72.6501	-0.105365	0.006	-0.844212	0	-0.065799	0	0	0	0	0.00141934	0	6.74441e-06	0	0	0
1.64	-241.811	350.874	-42.0258	-0.137289	0.006	-0.354948	0	-1.64062	0	-330.204	427.671	64.5519	-0.10768	0.006	-0.842972	0	0.965158	0	0	0	0	0.00141934	0	6.74441e-06	0	0	0
1.65	-230.865	343.848	-34.51	-0.137995	0.006	-0.357801	0	-2.82977	0	-291.871	441.156	61.1326	-0.119887	0.006	-0.839756	0	1.09035	0	0	0	0	0.00141934	0	6.74441e-06	0	0	0
1.66	-238.884	382.682	-37.0045	-0.139109	0.006	-0.358537	0	-3.90425	0	-221.828	549.61	61.0824	-0.153738	0.006	-0.832679	0	0.665359	0	0	0	0	0.00141934	0	6.74441e-06	0	0	0
1.67	-231.111	443.109	-40.9421	-0.142207	0.006	-0.358065	0	-5.42827	0	-70.3087	837.633	72.2985	-0.202201	0.006	-0.822709	0	-0.84913	0	0	0	0	0.00141934	0	6.74441e-06	0	0	0
1.68	-201.316	537.88	-43.6485	-0.150533	0.006	-0.356649	0	-7.70271	0	94.6881	1081.37	91.2328	-0.227807	0.006	-0.818375	0	-1.95717	0	0	0	0	0.00141934	0	6.74441e-06	0	0	0
1.69	-145.125	722.318	-52.5589	-0.170426	0.006	-0.355799	0	-10.1091	0	47.0983	968.357	97.5877	-0.22217	0.006	-0.821053	0	-1.61635	0	0	0	0	0.00141934	0	6.74441e-06	0	0	0
1.7	-40.5691	1001.23	-75.0046	-0.195121	0.006	-0.356589	0	-11.0838	0	-93.5221	735.016	92.589	-0.197472	0.006	-0.827726	0	0.488196	0	0	0	0	0.00141934	0	6.74441e-06	0	0	0
1.71	55.1939	1160.32	-108.126	-0.207001	0.006	-0.35601	0	-9.07714	0	-130.13	619.709	82.7333	-0.182209	0.006	-0.831958	0	2.39818	0	0	0	0	0.00141934	0	6.74441e-06	0	0	0
1.72	6.46392	1040.64	-124.67	-0.198551	0.006	-0.352998	0	-5.79532	0	-99.0224	620.454	87.9313	-0.184532	0.006	-0.832895	0	2.38131	0	0	0	0	0.00141934	0	6.74441e-06	0	0	0
1.73	-104.985	830.212	-105.963	-0.179671	0.006	-0.350907	0	-5.33491	0	-69.8584	680.042	104.509	-0.191797	0.006	-0.832458	0	1.77926	0	0	0	0	0.00141934	0	6.74441e-06	0	0	0
1.74	-158.22	692.025	-75.7227	-0.166381	0.006	-0.351708	0	-6.8633	0	-44.8677	752.714	102.397	-0.199203	0.006	-0.829949	0	2.60412	0	0	0	0	0.00141934	0	6.74441e-06	0	0	0
1.75	-166.901	651.741	-60.693	-0.162774	0.006	-0.353152	0	-8.14083	0	-19.6289	809.857	82.2816	-0.20529	0.006	-0.826527	0	4.73432	0	0	0	0	0.00141934	0	6.74441e-06	0	0	0
1.76	-153.167	690.781	-63.4596	-0.165752	0.006	-0.3536	0	-8.92161	0	-10.8105	828.011	69.6792	-0.207596	0.006	-0.824707	0	6.45325	0	0	0	0	0.00141934	0	6.74441e-06	0	0	0
1.77	-114.228	789.757	-75.6497	-0.173348	0.006	-0.353725	0	-9.48584	0	-21.1195	801.34	71.5875	-0.2058	0.006	-0.825181	0	7.02482	0	0	0	0	0.00141934	0	6.74441e-06	0	0	0
